<?xml version="1.0" standalone="no"?>
<!DOCTYPE svg PUBLIC "-//W3C//DTD SVG 20010904//EN"
 "http://www.w3.org/TR/2001/REC-SVG-20010904/DTD/svg10.dtd">
<svg version="1.0" xmlns="http://www.w3.org/2000/svg"
 width="512.000000pt" height="512.000000pt" viewBox="0 0 512.000000 512.000000"
 preserveAspectRatio="xMidYMid meet">
<metadata>
Created by potrace 1.16, written by Peter Selinger 2001-2019
</metadata>
<g transform="translate(0.000000,512.000000) scale(0.100000,-0.100000)"
fill="#000000" stroke="none">
<path d="M1598 5101 c-246 -79 -448 -362 -528 -741 -43 -203 -39 -504 10 -715
83 -361 308 -648 550 -704 302 -70 593 154 738 569 58 167 77 292 77 515 0
171 -4 217 -24 315 -67 325 -217 582 -411 705 -116 74 -285 96 -412 56z"/>
<path d="M3219 5096 c-249 -88 -443 -370 -522 -761 -32 -162 -32 -461 2 -625
83 -404 295 -697 555 -766 60 -16 173 -18 236 -3 162 37 341 201 444 407 65
129 116 305 137 475 17 143 7 404 -21 537 -80 379 -284 665 -528 740 -92 29
-216 27 -303 -4z"/>
<path d="M366 3504 c-140 -43 -249 -180 -290 -361 -20 -91 -21 -273 -1 -385
43 -248 177 -509 350 -684 446 -452 944 -241 912 386 -28 532 -449 1062 -842
1059 -44 0 -102 -7 -129 -15z"/>
<path d="M4473 3496 c-355 -115 -666 -581 -690 -1036 -18 -343 115 -572 362
-622 112 -22 257 16 392 104 244 159 452 491 508 816 20 112 19 294 -1 385
-30 136 -111 264 -203 321 -98 61 -239 73 -368 32z"/>
<path d="M2392 2459 c-109 -23 -220 -65 -313 -120 -204 -119 -539 -533 -899
-1114 -170 -273 -246 -419 -275 -531 -19 -73 -19 -232 0 -303 37 -141 128
-252 256 -315 128 -62 178 -71 404 -71 190 1 204 2 280 28 44 15 118 47 165
71 231 120 249 127 346 148 143 31 445 31 588 0 97 -21 115 -28 346 -148 154
-80 220 -96 417 -102 154 -4 183 -2 268 18 52 12 127 37 165 56 129 65 230
195 259 332 16 75 14 217 -4 287 -33 131 -214 452 -460 810 -306 448 -580 766
-730 848 -88 48 -211 92 -315 111 -120 23 -377 20 -498 -5z"/>
</g>
</svg>
